# xmcd
#
# Track frame offsets:
#	150
#	14075
#	26955
#	40012
#	49457
#	61802
#	74652
#	87615
#	99030
#	112205
#	124500
#	135315
#	147762
#	158565
#	168590
#	180670
#	190832
#	203660
#	216505
#	227470
#	241270
#	252970
#	267685
#
# Disc length: 3728
#
# Revision: 4
# Processed by: cddbd v1.5.1PL0 Copyright (c) Steve Scherf et al.
# Submitted via: Grip 2.95
# Normalized: r3:TSWAP
#
DISCID=520e8e17
DTITLE=Various Artist - Men Are Like Street Cars...Women Blues Singers 1928-1969 disc 2 of 2
DYEAR=1900
DGENRE=
TTITLE0=Donna Hightower - I Ain't In the Mood
TTITLE1=Helen Humes - All Night Long
TTITLE2=Memphis Minnie - Me and My Chauffeur Blues
TTITLE3=Big Mama Thornton - They Call Me Big Mama
TTITLE4=Marie Adams - I'm Gonna Play the Honky Tonks
TTITLE5=Gladys Hill - Please Don't Touch My Bowl
TTITLE6=Big Mama Thornton - Hound Dog
TTITLE7=Marie Adams - I'm Gonna Latch On
TTITLE8=Alberta Adams - Messin' Around With the Blues
TTITLE9=Lovey Lewis - Take a Chance On Me
TTITLE10=Esther Phillips - Sit Back Down
TTITLE11=Gwen Johnson - A Trumpet Blows Away the Blues
TTITLE12=Margie Day - Take Out Your False Teeth Daddy
TTITLE13=Lillian Offitt - Miss You So
TTITLE14=Lavelle White - If (I Could Be With You)
TTITLE15=Katie Webster - I Feel So Low
TTITLE16=Betty James - I'm A Little Messed Up
TTITLE17=Etta James - Something's Got a Hold On Me
TTITLE18=Etta James and Sugar Pie DeSanto - In the Basement, Part 1
TTITLE19=Koko Taylor - Wang Dang Doodle
TTITLE20=Irma Thomas - Good To Me
TTITLE21=Koko Taylor - 29 Ways
TTITLE22=Ike and Tina Turner - Three O'Clock Blues
EXTD=
EXTT0=
EXTT1=
EXTT2=
EXTT3=
EXTT4=
EXTT5=
EXTT6=
EXTT7=
EXTT8=
EXTT9=
EXTT10=
EXTT11=
EXTT12=
EXTT13=
EXTT14=
EXTT15=
EXTT16=
EXTT17=
EXTT18=
EXTT19=
EXTT20=
EXTT21=
EXTT22=
PLAYORDER=
